<svg viewBox="0 0 200 200" fill="none" xmlns="http://www.w3.org/2000/svg"><path d="M131.126 185.876h50.063v-50.717c-18.284 0-31.778 5.285-41.791 17.848-8.567 10.75-8.272 21.508-8.272 32.869z" fill="#C4EED0"/><path d="M180.939 45.897c-1.015-.741-3.275-2.099-6.206-3.763-4.465-1.172-9.12-.59-10.791 1.916-2.222 3.334 4.289 10.186 4.289 10.186 4.989 2.963 13.672 2.463 15.295-1.869 0-.004.922-3.883-2.587-6.47z" fill="#444746" stroke="#1F1F1F" stroke-linecap="round" stroke-linejoin="round"/><path d="M45.189 141.674c-6.281-6.281-16.464-6.282-22.745-.001-6.28 6.281-6.28 16.464 0 22.745l14.947 14.946c6.281 6.281 16.464 6.281 22.745 0 6.28-6.28 6.28-16.463-.001-22.744l-14.946-14.946z" fill="#FFDF99"/><path d="M132.17 67.082H55.896a6.59 6.59 0 0 0-6.59 6.59v11.453a6.59 6.59 0 0 0 6.59 6.59h76.274c3.64 0 6.591-2.95 6.591-6.59V73.673c0-3.64-2.951-6.591-6.591-6.591z" fill="#C2E7FF" stroke="#C2E7FF" stroke-linecap="round" stroke-linejoin="round"/><path d="M67.505 70.53H56.36a3.294 3.294 0 0 0-3.294 3.294V84.97a3.294 3.294 0 0 0 3.294 3.294h11.146A3.294 3.294 0 0 0 70.8 84.97V73.824a3.294 3.294 0 0 0-3.295-3.295z" fill="#4C8DF6" stroke="#1F1F1F" stroke-linecap="round" stroke-linejoin="round"/><path d="M67.018 74.041h-9.854a.985.985 0 0 0 0 1.97h9.854a.985.985 0 0 0 0-1.97zM67.018 78.413h-9.854a.985.985 0 0 0 0 1.97h9.854a.985.985 0 0 0 0-1.97zM63.314 82.785h-6.15a.985.985 0 1 0 0 1.97h6.15a.985.985 0 0 0 0-1.97z" fill="#fff"/><path d="M132.17 98.243H55.896a6.59 6.59 0 0 0-6.59 6.591v11.452a6.59 6.59 0 0 0 6.59 6.591h76.274a6.591 6.591 0 0 0 6.591-6.591v-11.452c0-3.64-2.951-6.59-6.591-6.59z" fill="#C2E7FF" stroke="#C2E7FF" stroke-linecap="round" stroke-linejoin="round"/><path d="M67.253 101.69H56.107a3.295 3.295 0 0 0-3.294 3.295v11.146a3.295 3.295 0 0 0 3.294 3.295h11.146a3.295 3.295 0 0 0 3.295-3.295v-11.146a3.295 3.295 0 0 0-3.295-3.295z" fill="#E46962" stroke="#1F1F1F" stroke-linecap="round" stroke-linejoin="round"/><path d="M55.502 116.758h12.83l-4.805-6.035-3.407 4.146-1.683-1.765-2.935 3.654z" fill="#fff"/><path d="M31.85 25.39a10.161 10.161 0 1 1-18.63-5.616 10.164 10.164 0 0 1 4.513-3.746c1.251-.53 2.597-.8 3.956-.798a10.16 10.16 0 0 1 10.16 10.16z" fill="#F9DEDC" stroke="#F9DEDC" stroke-miterlimit="10"/><path d="M11.531 25.391a10.165 10.165 0 0 1 6.206-9.363M181.188 152.978v31.998M25.581 110.25c-7.02-29.93-.74-59.722 11.504-66.072 9.976-5.172 20.272 1.411 23.598 13.974 0 0 1.111-16.627 11.085-20.322" stroke="#1F1F1F" stroke-linecap="round" stroke-linejoin="round"/><path d="M143.648 25.405c-3.437 4.815-8.2 11.504-10 14.211-2.963 4.434-4.619 7.02-10.347 9.052-5.727 2.032-19.398 5.728-26.233 8.13-5.293 1.852-4.444 10.344.74 10.344h38.243c5.541 0 9.237 4.436 8.867 10.9-.37 6.465-7.205 28.452-7.205 28.452s-21.367 15.346-23.589 16.687c-4.187 2.526-3.941 11.332 5.357 8.808 0 0-1.909 1.231-3.333 2.407-3.124 2.58-1.356 7.82 3.202 7.328a19.853 19.853 0 0 0 4.331-.987 6.978 6.978 0 0 0-1.5.926c-1.852 1.416-1.296 5.665 3.148 5.111 5.943-.741 17.737-4.259 24.758-11.946 8.466-9.286 11.453-15.951 14.779-30.176 3.326-14.226 3.334-36.21 5.726-45.263 1.235-4.656 4.769-10.486 7.909-15.05-8.822-5.31-33.907-18.44-34.853-18.934z" fill="#DBA77F" stroke="#1F1F1F" stroke-linecap="round" stroke-linejoin="round"/><path d="M119.111 132.176c5.296-2.222 13.978-6.098 19.52-9.422 2.037-1.228 5.728-3.704 7.759-6.467 5.263-7.176 9.976-22.539 9.976-22.539M123.483 140.858c5.358-1.667 10.991-4.591 15.887-6.835 4.445-2.037 10.154-6.039 13.487-10.9 4.434-6.465 7.945-20.506 7.945-20.506" stroke="#1F1F1F" stroke-linecap="round" stroke-linejoin="round"/><path d="M126.614 129.526H50.34a6.591 6.591 0 0 0-6.59 6.591v11.452c0 3.64 2.95 6.591 6.59 6.591h76.274a6.591 6.591 0 0 0 6.591-6.591v-11.452a6.591 6.591 0 0 0-6.591-6.591z" fill="#fff" stroke="#1F1F1F" stroke-linecap="round" stroke-linejoin="round"/><path d="M61.644 132.975H50.498a3.294 3.294 0 0 0-3.294 3.294v11.146a3.295 3.295 0 0 0 3.294 3.295h11.146a3.295 3.295 0 0 0 3.295-3.295v-11.146a3.294 3.294 0 0 0-3.295-3.294z" fill="#1EA446" stroke="#1EA446" stroke-linecap="round" stroke-linejoin="round"/><path d="M62.757 138.111h-8.926v-2.952h-1.794v2.952H49.27v1.794h2.767v8.741h1.794v-8.741h8.926v-1.794z" fill="#fff"/><path d="M150.826 14.491l-7.206 10.9s32.53 16.978 37.319 20.506c3.518 2.592 2.592 6.466 2.592 6.466l5-7.253M49.309 85.123v-11.45a6.59 6.59 0 0 1 6.59-6.591h76.274M109.077 122.874H55.894a6.594 6.594 0 0 1-4.66-1.93 6.596 6.596 0 0 1-1.93-4.66v-7.582" stroke="#1F1F1F" stroke-linecap="round" stroke-linejoin="round"/><path d="M132.168 67.082a6.584 6.584 0 0 1 4.661 1.93 6.596 6.596 0 0 1 1.93 4.66v11.45a6.596 6.596 0 0 1-1.93 4.662 6.588 6.588 0 0 1-4.661 1.93" stroke="#1F1F1F" stroke-linecap="round" stroke-linejoin="round"/></svg>
